<svg xmlns="http://www.w3.org/2000/svg" xmlns:xlink="http://www.w3.org/1999/xlink" width="500" zoomAndPan="magnify" viewBox="0 0 375 374.999991" height="500" preserveAspectRatio="xMidYMid meet" version="1.0"><defs><g/><clipPath id="67da15b393"><path d="M 4.578125 5 L 370.421875 5 L 370.421875 370.421875 L 4.578125 370.421875 Z M 4.578125 5 " clip-rule="nonzero"/></clipPath><clipPath id="5ace3e0523"><path d="M 165 99 L 210 99 L 210 153 L 165 153 Z M 165 99 " clip-rule="nonzero"/></clipPath><clipPath id="5c70e0733e"><path d="M 187.464844 90.199219 L 218.523438 121.253906 L 187.464844 152.3125 L 156.40625 121.253906 Z M 187.464844 90.199219 " clip-rule="nonzero"/></clipPath><clipPath id="facc0996e7"><path d="M 165 222 L 210 222 L 210 276 L 165 276 Z M 165 222 " clip-rule="nonzero"/></clipPath><clipPath id="319b19e85a"><path d="M 187.464844 284.734375 L 156.40625 253.675781 L 187.464844 222.617188 L 218.523438 253.675781 Z M 187.464844 284.734375 " clip-rule="nonzero"/></clipPath><clipPath id="d6d6cca0bf"><path d="M 107 132 L 157 132 L 157 177 L 107 177 Z M 107 132 " clip-rule="nonzero"/></clipPath><clipPath id="7935f1d820"><path d="M 102.894531 139.417969 L 145.238281 127.753906 L 156.902344 170.101562 L 114.554688 181.765625 Z M 102.894531 139.417969 " clip-rule="nonzero"/></clipPath><clipPath id="12b9f43bd5"><path d="M 218 198 L 267 198 L 267 243 L 218 243 Z M 218 198 " clip-rule="nonzero"/></clipPath><clipPath id="8c9c6aa417"><path d="M 272.039062 235.511719 L 229.691406 247.175781 L 218.03125 204.828125 L 260.375 193.167969 Z M 272.039062 235.511719 " clip-rule="nonzero"/></clipPath><clipPath id="6d3cfbb93a"><path d="M 108 198 L 158 198 L 158 243 L 108 243 Z M 108 198 " clip-rule="nonzero"/></clipPath><clipPath id="b3adda8af8"><path d="M 103.488281 236.546875 L 114.632812 194.058594 L 157.117188 205.203125 L 145.972656 247.6875 Z M 103.488281 236.546875 " clip-rule="nonzero"/></clipPath><clipPath id="f60657fb46"><path d="M 217 132 L 267 132 L 267 177 L 217 177 Z M 217 132 " clip-rule="nonzero"/></clipPath><clipPath id="d8b0726bbf"><path d="M 271.445312 138.386719 L 260.300781 180.871094 L 217.816406 169.730469 L 228.957031 127.242188 Z M 271.445312 138.386719 " clip-rule="nonzero"/></clipPath></defs><g clip-path="url(#67da15b393)"><path fill="#d9d9d9" d="M 364.644531 188.011719 C 364.644531 168.914062 374.15625 148.648438 368.300781 131.453125 C 362.300781 113.597656 341.960938 102.625 330.765625 87.769531 C 319.425781 72.769531 314.742188 50.890625 299.15625 39.992188 C 283.71875 29.234375 260.667969 31.648438 242.15625 25.796875 C 224.230469 20.234375 207.183594 5.015625 187.355469 5.015625 C 167.523438 5.015625 150.402344 20.160156 132.550781 25.796875 C 114.039062 31.574219 90.917969 29.160156 75.476562 39.992188 C 59.890625 50.890625 55.210938 72.769531 43.867188 87.769531 C 32.601562 102.625 12.332031 113.597656 6.257812 131.453125 C 0.480469 148.648438 9.917969 168.914062 9.917969 188.011719 C 9.917969 207.109375 0.40625 227.378906 6.257812 244.570312 C 12.257812 262.425781 32.601562 273.402344 43.796875 288.253906 C 55.136719 303.253906 59.820312 325.132812 75.40625 336.035156 C 90.84375 346.863281 113.890625 344.449219 132.476562 350.230469 C 150.402344 355.789062 167.453125 371.007812 187.28125 371.007812 C 207.109375 371.007812 224.230469 355.863281 242.085938 350.230469 C 260.597656 344.449219 283.71875 346.863281 299.15625 336.035156 C 314.742188 325.132812 319.425781 303.253906 330.765625 288.253906 C 342.035156 273.402344 362.300781 262.425781 368.300781 244.570312 C 374.15625 227.304688 364.644531 207.035156 364.644531 188.011719 Z M 364.644531 188.011719 " fill-opacity="1" fill-rule="nonzero"/></g><g clip-path="url(#5ace3e0523)"><g clip-path="url(#5c70e0733e)"><path fill="#ffffff" d="M 202.992188 105.726562 C 194.417969 97.148438 180.515625 97.148438 171.9375 105.726562 C 163.363281 114.300781 163.363281 128.203125 171.9375 136.78125 L 187.464844 152.308594 L 202.992188 136.78125 C 211.570312 128.207031 211.570312 114.300781 202.992188 105.726562 Z M 202.992188 105.726562 " fill-opacity="1" fill-rule="nonzero"/></g></g><g clip-path="url(#facc0996e7)"><g clip-path="url(#319b19e85a)"><path fill="#ffffff" d="M 171.9375 269.207031 C 180.515625 277.78125 194.417969 277.78125 202.992188 269.207031 C 211.570312 260.628906 211.570312 246.726562 202.992188 238.152344 L 187.464844 222.625 L 171.9375 238.152344 C 163.359375 246.722656 163.363281 260.628906 171.9375 269.207031 Z M 171.9375 269.207031 " fill-opacity="1" fill-rule="nonzero"/></g></g><g clip-path="url(#d6d6cca0bf)"><g clip-path="url(#7935f1d820)"><path fill="#ffffff" d="M 124.066406 133.585938 C 112.371094 136.808594 105.503906 148.894531 108.722656 160.589844 C 111.945312 172.28125 124.03125 179.148438 135.726562 175.929688 L 156.898438 170.097656 L 151.066406 148.929688 C 147.851562 137.234375 135.757812 130.367188 124.066406 133.585938 Z M 124.066406 133.585938 " fill-opacity="1" fill-rule="nonzero"/></g></g><g clip-path="url(#12b9f43bd5)"><g clip-path="url(#8c9c6aa417)"><path fill="#ffffff" d="M 250.867188 241.34375 C 262.558594 238.125 269.425781 226.035156 266.207031 214.34375 C 262.988281 202.648438 250.898438 195.78125 239.207031 199 L 218.035156 204.832031 L 223.863281 226.003906 C 227.082031 237.699219 239.175781 244.566406 250.867188 241.34375 Z M 250.867188 241.34375 " fill-opacity="1" fill-rule="nonzero"/></g></g><g clip-path="url(#6d3cfbb93a)"><g clip-path="url(#b3adda8af8)"><path fill="#ffffff" d="M 109.058594 215.304688 C 105.980469 227.035156 112.996094 239.039062 124.730469 242.117188 C 136.460938 245.191406 148.464844 238.179688 151.542969 226.445312 L 157.113281 205.207031 L 135.871094 199.632812 C 124.140625 196.554688 112.136719 203.574219 109.058594 215.304688 Z M 109.058594 215.304688 " fill-opacity="1" fill-rule="nonzero"/></g></g><g clip-path="url(#f60657fb46)"><g clip-path="url(#d8b0726bbf)"><path fill="#ffffff" d="M 265.871094 159.628906 C 268.949219 147.894531 261.933594 135.890625 250.203125 132.816406 C 238.472656 129.738281 226.46875 136.753906 223.390625 148.484375 L 217.820312 169.726562 L 239.058594 175.296875 C 250.789062 178.378906 262.796875 171.359375 265.871094 159.628906 Z M 265.871094 159.628906 " fill-opacity="1" fill-rule="nonzero"/></g></g><g fill="#737373" fill-opacity="1"><g transform="translate(-23.829477, 325.381361)"><g><path d="M 244 27.199219 L 257.597656 25.601562 L 260 14.800781 L 259.199219 1.601562 L 261.199219 -13.601562 L 260 -18 L 261.199219 -39.601562 L 260 -45.601562 C 260.796875 -58 261.199219 -70 261.597656 -82.398438 C 262 -94.800781 264.796875 -106.398438 270 -116.398438 L 296.796875 -120 L 296.796875 -126.800781 L 297.597656 -126.800781 L 296.796875 -129.597656 L 294 -130.398438 L 293.199219 -136 L 274 -142 L 269.199219 -146.398438 L 270 -151.199219 L 268.398438 -156.800781 L 268.398438 -161.597656 C 280.398438 -166.800781 292 -171.597656 304 -175.597656 C 315.199219 -180 327.996094 -182 342.398438 -181.597656 L 345.996094 -189.597656 L 338.796875 -202.796875 C 333.996094 -206 328.796875 -208.398438 323.597656 -209.199219 C 317.597656 -210.398438 312.398438 -212.796875 307.597656 -216.398438 L 305.199219 -213.597656 C 289.597656 -210 274 -206.796875 258.398438 -204 C 242.796875 -200.796875 227.199219 -197.597656 212 -194 L 207.597656 -194 C 210 -200.796875 212.398438 -207.199219 214.796875 -213.597656 C 217.199219 -220.398438 220 -226.398438 222.796875 -233.199219 C 232.796875 -236.796875 242.796875 -240 253.597656 -242 C 264 -244.398438 275.199219 -246.398438 286.398438 -247.597656 L 287.199219 -249.199219 L 285.199219 -254 L 287.199219 -260 L 284.398438 -268 L 280.796875 -271.597656 L 276 -275.199219 C 269.199219 -276.796875 262 -278.398438 254.796875 -280 C 247.199219 -281.597656 239.597656 -282.796875 231.597656 -284 L 227.199219 -304 L 222 -305.597656 L 221.199219 -310 C 216.796875 -311.199219 212.398438 -312 208 -312.398438 C 202.796875 -312.796875 198 -313.199219 193.199219 -313.597656 L 185.199219 -312.796875 L 182.398438 -306.796875 L 188 -296.398438 L 188 -271.597656 L 182.398438 -271.597656 L 181.597656 -267.199219 L 160 -252 L 144.800781 -254 C 138 -253.199219 131.597656 -251.199219 126 -248 C 120.398438 -244.398438 114 -242 107.597656 -240.398438 L 107.597656 -238 L 109.199219 -238 L 114.800781 -228.796875 L 132.398438 -218 L 132.398438 -216.398438 L 135.199219 -216.398438 L 135.199219 -214.398438 L 146 -210 L 153.199219 -210.796875 L 156 -210 L 185.199219 -215.199219 L 186.398438 -218 L 188 -218 C 188.398438 -213.597656 188.398438 -210 187.199219 -207.199219 C 186 -203.597656 184.800781 -200 183.597656 -196.398438 L 180.800781 -197.597656 C 162.398438 -190 144.398438 -181.597656 126.800781 -173.199219 C 109.199219 -164.398438 91.199219 -156.398438 72.800781 -148.398438 L 67.597656 -150.398438 L 59.199219 -147.597656 C 59.601562 -144 60 -140.398438 60 -136.398438 C 60 -132.398438 60.800781 -128.800781 62.800781 -125.199219 C 73.597656 -128 84 -131.199219 94.398438 -134.800781 C 105.199219 -138 115.597656 -141.199219 126 -144 L 126 -145.597656 C 136 -147.597656 145.199219 -150 154.800781 -153.597656 C 163.597656 -156.800781 173.199219 -159.199219 182.398438 -161.597656 C 185.199219 -161.597656 187.597656 -161.597656 189.597656 -161.597656 C 191.597656 -161.597656 193.199219 -161.199219 194.796875 -160 C 196.796875 -159.199219 198.398438 -159.199219 199.597656 -160 C 200.796875 -160.398438 201.199219 -161.597656 201.199219 -163.597656 L 221.199219 -170 L 224.796875 -170 L 178.800781 -136.800781 L 178.800781 -135.199219 C 170.800781 -130 162.398438 -125.199219 155.199219 -119.199219 C 147.199219 -113.199219 139.597656 -107.199219 131.597656 -100.398438 L 138 -80.398438 L 141.597656 -77.597656 C 157.199219 -81.199219 172.398438 -86 187.597656 -91.597656 C 202.796875 -97.597656 217.597656 -102.800781 232.398438 -107.597656 L 235.199219 -107.597656 L 240.796875 -67.199219 L 240.796875 -24.398438 C 240.398438 -21.601562 240 -18.398438 240 -15.199219 C 240 -11.601562 239.199219 -8.800781 237.199219 -6.800781 C 235.199219 -6.800781 233.199219 -6.800781 231.199219 -6.800781 C 229.199219 -6.800781 227.199219 -7.601562 226 -8.800781 L 224 -8.398438 C 218.796875 -9.199219 214 -10.800781 209.199219 -12.398438 C 204.796875 -13.601562 200 -15.199219 194.796875 -17.199219 L 208.398438 -1.199219 L 213.597656 4.398438 L 218.398438 6 L 218.398438 8 C 218.796875 9.601562 220 10.800781 222 11.199219 C 224 11.601562 225.199219 12 227.199219 12 L 227.199219 14 L 233.597656 20.398438 L 235.199219 20.398438 L 236.398438 23.199219 Z M 222.796875 -36.800781 L 224.796875 -38.800781 L 226 -36.800781 L 224 -39.601562 L 225.199219 -42.800781 L 230 -42 L 231.597656 -42 L 228 -45.601562 L 230.796875 -50.398438 L 227.199219 -52.800781 L 227.199219 -57.601562 L 230 -58.398438 L 228.796875 -60.800781 L 226 -61.601562 L 224.796875 -66.398438 L 218.398438 -69.199219 C 218.398438 -70.398438 218.398438 -71.597656 218.796875 -72.800781 C 219.199219 -74 220 -74.800781 221.199219 -75.199219 L 221.199219 -76.800781 L 218.398438 -76.800781 L 218.398438 -75.199219 L 215.597656 -75.199219 L 214.796875 -77.597656 L 214.796875 -79.597656 L 217.597656 -80.398438 L 217.597656 -81.597656 L 211.199219 -77.597656 C 207.199219 -77.597656 203.199219 -77.597656 199.199219 -77.597656 C 195.199219 -77.597656 191.597656 -78.398438 188.796875 -80.398438 C 184.398438 -80 180.398438 -79.597656 176 -79.597656 C 172 -79.597656 168.398438 -78.800781 164.800781 -76.800781 L 164.800781 -75.199219 L 175.199219 -64.398438 L 178.800781 -63.597656 L 178.800781 -61.601562 L 184.398438 -58.398438 L 186.398438 -54 L 199.597656 -49.199219 L 200.398438 -46.398438 L 210 -42.800781 L 210 -42 C 212 -41.199219 214 -40.398438 216.398438 -40.398438 C 218.796875 -40.398438 220.796875 -39.601562 222.796875 -38 Z M 233.597656 -132.398438 L 192.398438 -117.199219 L 190 -117.199219 L 190 -119.199219 C 196.796875 -123.597656 203.597656 -127.597656 210 -132 C 216.796875 -136.398438 224 -140.398438 231.597656 -142.800781 L 233.597656 -142.800781 L 234.398438 -133.199219 Z M 233.597656 -132.398438 "/></g></g></g></svg>